<svg id="Layer_1" data-name="Layer 1" xmlns="http://www.w3.org/2000/svg" viewBox="0 0 370 447"><defs><style>.cls-1{fill:#ee828b;}</style></defs><path class="cls-1" d="M97.6,104.84c-6.76-6-15-10.77-24-12.25-8.63-1.41-17.8,0-25.2,4.84S36.24,110.28,34.47,119a55.65,55.65,0,0,0,1.33,27.51,41,41,0,0,0,6.67,12.74,106.23,106.23,0,0,0,9.25,10.07c5.86,5.87,12.65,12.9,13.08,21.7A15.29,15.29,0,0,1,62,200.71a14.64,14.64,0,0,1-1.24,1.64c-.56.64-1.14,1.27-1.74,1.87-1.24,1.23-2.57,2.38-3.93,3.49-5.48,4.46-12.05,8.61-16.48,14.62-8.79,11.94-7.18,29.95,2.59,40.82a30,30,0,0,0,4.19,3.77c1.29,1,3.36.2,4.1-1.08a3.06,3.06,0,0,0-1.07-4.1C38.55,254.2,36,238.47,42.17,227.8c3.25-5.66,9.12-9.62,14.29-13.61,5.57-4.3,11.09-9,13.37-15.94,2.85-8.65-.87-17.74-6.13-24.62S51.27,161.5,46.29,154.4c-5.07-7.25-6.94-16-6.89-24.76,0-7.69,1.6-16,6.58-22.15,4.85-5.95,12.39-9.13,19.87-9.44,8.2-.34,16.08,2.66,22.76,7.26a47.91,47.91,0,0,1,4.75,3.77,3.07,3.07,0,0,0,4.24,0,3,3,0,0,0,0-4.24Z"/><path class="cls-1" d="M199.62,122.22c10.63-11.07,24-24.41,40.52-22.83,8.1.78,15.44,5.51,21.65,10.47,7.63,6.1,14.78,12.86,22.1,19.34L331,170.93c3.49,3.09,7,6.17,10.25,9.55a48,48,0,0,1,4.41,5.14,12.86,12.86,0,0,1,2.65,5.39,7.39,7.39,0,0,1,0,1.33c0,.35,0,0,0,0q0,.3-.12.6a4.55,4.55,0,0,1-.85,1.89c-.08.13-.17.26-.26.38.26-.34-.07.06-.1.1-.28.3-.57.59-.88.87,0,0-.43.36-.12.12l-.38.27c-.4.26-.8.51-1.22.73a9.36,9.36,0,0,1-4,1,8.48,8.48,0,0,1-4.17-1.06,17,17,0,0,1-7.06-7.82c-.86-1.75-1.36-3.76-2.17-5.63a8.53,8.53,0,0,0-5-4.77,18.77,18.77,0,0,0-2.86-.74c-.49-.1-1-.2-1.47-.34-.18-.06-1.06-.37-.73-.23a8.69,8.69,0,0,1-3.56-2.61,5.85,5.85,0,0,1-.4-.47c.08.11.26.37-.1-.13q-.31-.43-.6-.9c-.19-.31-.36-.63-.53-.95l-.27-.56c.17.37-.09-.22-.11-.29a10.19,10.19,0,0,1-.79-4.35,5.21,5.21,0,0,1,.21-1.79,12.08,12.08,0,0,1,.35-1.17s.18-.47.07-.22.29-.57.24-.49a3,3,0,0,0-5.18-3c-3.67,7.29-.95,16.38,5.65,21a14.54,14.54,0,0,0,5.43,2.27c1.95.41,3.47.51,4.28,2.44s1.37,4,2.33,6a26.15,26.15,0,0,0,3.72,5.55,17.72,17.72,0,0,0,11.42,6.24,15.16,15.16,0,0,0,11.14-3.72A11.56,11.56,0,0,0,354,189c-1.17-5-5.09-9.18-8.51-12.76s-7.38-7-11.18-10.37l-12.51-11.1-25.22-22.35c-8.27-7.33-16.5-14.71-24.81-22-7.06-6.19-14.57-12.28-23.58-15.34S230,93.11,221.58,97c-8.15,3.78-15.12,9.89-21.47,16.15-1.6,1.59-3.17,3.2-4.73,4.83-2.68,2.78,1.56,7,4.24,4.24Z"/><path class="cls-1" d="M205.6,94.2c9.13-12.39,18.84-25.27,33.26-31.77,7.58-3.42,15.89-5,23.94-6.89a148.58,148.58,0,0,0,24.41-8c15.44-6.63,29.8-15.47,45-22.63,1.89-.89,3.78-1.79,5.7-2.58a13.2,13.2,0,0,1,2.65-.85,5.29,5.29,0,0,1,1-.08l.57,0c.46,0-.43-.1,0,0l.91.24c.12,0,.51.24,0,0,.12.06.24.11.36.18l.79.49c-.44-.29.27.24.42.39s.44.46.65.7,0,0,0-.07l.32.46a11.31,11.31,0,0,1,.94,1.75c-.19-.45.11.37.15.51.11.32.2.65.28,1s.19.93.16.76,0,.16,0,.19c0,.24.05.49.06.73s0,.69,0,1c0,.18-.08,1-.05.77s0,.16,0,.18c-.05.19-.08.38-.13.57a11,11,0,0,1-.33,1.12c-.17.5.1-.13-.15.35s-.37.7-.58,1a10,10,0,0,1-1.35,1.79,15.63,15.63,0,0,1-3.66,3c-6.17,3.8-13.65,4.5-20.58,6.51a32.83,32.83,0,0,0-10.81,5c-2.86,2.14-5.24,5-8.37,6.62a3.89,3.89,0,0,1-3.13.39c-3.72-1-5.31,4.75-1.59,5.79,4.23,1.18,7.94-.79,11.17-3.36,3-2.35,5.47-5,8.92-6.69,7.11-3.47,15.35-3.7,22.64-6.72,6.91-2.87,13.63-8.17,14-16.22.32-6.58-3.87-13.87-10.91-14.48a13.48,13.48,0,0,0-6.27,1.25c-2.15.89-4.27,1.86-6.38,2.85-4.07,1.91-8.08,3.94-12.06,6-7.91,4.13-15.72,8.44-23.73,12.37a148.56,148.56,0,0,1-24.38,9.72c-8.62,2.48-17.52,3.9-26,6.69a63.15,63.15,0,0,0-22.57,12.9c-6.31,5.6-11.6,12.24-16.66,19-1.24,1.64-2.47,3.3-3.69,5a3,3,0,0,0,1.07,4.11,3.08,3.08,0,0,0,4.11-1.08Z"/><path class="cls-1" d="M148.68,230.22,90.29,164.8,73.7,146.21l-2.92,5c21.62,7.22,44.9,2.78,67,1.3a542.39,542.39,0,0,1,70.87-.11q19.74,1.25,39.37,4l-1.32-5q-15.93,17.64-33.18,34t-35.7,31.37q-10.34,8.4-21.05,16.34a3.09,3.09,0,0,0-1.08,4.1c.75,1.28,2.8,2,4.11,1.08q19.4-14.38,37.66-30.21t35-32.84q9.47-9.6,18.5-19.62c1.33-1.47,1.08-4.68-1.32-5a551.12,551.12,0,0,0-71-5.24q-17.73-.15-35.44.85c-11.44.66-22.83,1.95-34.26,2.65-12.31.75-24.79.55-36.59-3.4-3-1-4.79,2.93-2.92,5l58.39,65.42,16.59,18.58a3,3,0,0,0,4.24-4.24Z"/><path class="cls-1" d="M155.29,235.63,153.81,299l-1.48,63.16-.83,35.7c-.09,3.86,5.91,3.86,6,0L159,334.49l1.48-63.16.83-35.7c.09-3.86-5.91-3.86-6,0Z"/><path class="cls-1" d="M234.66,169a56.46,56.46,0,0,0-48.27-13.51c-17.38,3.38-32.68,15.23-50.46,15.89-8.13.3-16.24-1.6-21.81-7.73a3,3,0,0,0-4.25,4.24c11.31,12.44,30.45,10.79,44.82,5.58,8.91-3.23,17.38-7.63,26.45-10.45A51.29,51.29,0,0,1,206,161.25a50.33,50.33,0,0,1,24.42,12,3.07,3.07,0,0,0,4.24,0,3,3,0,0,0,0-4.24Z"/><path class="cls-1" d="M158.94,387a100.29,100.29,0,0,1,22.41-2c6.48.15,13.37.81,18.92,4.48a16.2,16.2,0,0,1,5.51,6.3,10.62,10.62,0,0,1,.88,7.16c-1.36,5.47-6.59,9-11.81,10.74-6.43,2.1-13.42,2.64-20.1,3.47A189.14,189.14,0,0,1,154,418.71a83.42,83.42,0,0,1-19.87-1.91c-5.77-1.35-12.2-3.39-16.77-7.19a15.75,15.75,0,0,1-2.93-3.1,7.73,7.73,0,0,1-1.54-5.64c0,.58.07-.39.08-.42a11.48,11.48,0,0,1,.31-1.15s.39-.9.14-.38c.13-.26.27-.53.41-.78s.31-.51.47-.75.23-.33.35-.49c-.16.22-.13.19.1-.09,3.61-4.11,9.17-6,14.58-7.45,3.72-1,2.14-6.78-1.6-5.79-5.71,1.52-11.65,3.71-16.05,7.79a14,14,0,0,0-3.06,17.14c3.34,6.16,10.2,9.55,16.5,11.87a75.46,75.46,0,0,0,22.33,4.22,145.36,145.36,0,0,0,22.65-.93c3.93-.42,7.84-.93,11.76-1.47a114.89,114.89,0,0,0,11.36-1.86c7-1.64,13.93-5.21,17.53-11.68,3.69-6.64,2.17-14.18-2.47-19.9-4.9-6-12.62-8.44-20.07-9.33a95.69,95.69,0,0,0-24.67.67c-2.08.3-4.16.66-6.22,1.09a3,3,0,1,0,1.59,5.78Z"/></svg>